<?xml version="1.0" encoding="utf-8"?>
<!-- Generator: Adobe Illustrator 26.2.1, SVG Export Plug-In . SVG Version: 6.00 Build 0)  -->
<svg version="1.1" id="图层_1" xmlns="http://www.w3.org/2000/svg" xmlns:xlink="http://www.w3.org/1999/xlink" x="0px" y="0px"
	 viewBox="0 0 85.04 85.04" style="enable-background:new 0 0 85.04 85.04;" xml:space="preserve">
<style type="text/css">
	.st0{fill:#29292A;}
	.st1{opacity:0.8;}
	.st2{fill:#FFFFFF;}
</style>
<g id="zn7w2m.tif">
</g>
<g>
	<path class="st0" d="M67.8,46.19c0,0.66-0.53,1.19-1.19,1.19c-0.66,0-1.19-0.53-1.19-1.19c0-0.66,0.53-1.19,1.19-1.19h0
		C67.27,44.99,67.8,45.53,67.8,46.19z M43.51,41.47c0,0.66-0.53,1.19-1.19,1.19c-0.66,0-1.19-0.53-1.19-1.19
		c0-0.66,0.53-1.19,1.19-1.19l0,0C42.97,40.28,43.51,40.81,43.51,41.47z"/>
	<path class="st0" d="M42.33,35.57c-8.47,0-15.34,6.87-15.34,15.34s6.87,15.34,15.34,15.34s15.34-6.87,15.34-15.34v0
		C57.65,42.44,50.79,35.58,42.33,35.57z M42.33,63.87c-7.17,0-12.98-5.81-12.98-12.98c0-7.17,5.81-12.98,12.98-12.98
		c7.17,0,12.98,5.81,12.98,12.98c0,0,0,0.01,0,0.01C55.29,58.06,49.49,63.86,42.33,63.87z"/>
	<path class="st0" d="M52.94,50.9c0,0.66-0.53,1.19-1.19,1.19s-1.19-0.53-1.19-1.19c-0.02-3-1.65-5.77-4.27-7.23
		c-0.56-0.35-0.72-1.09-0.37-1.64c0.33-0.52,1.01-0.7,1.56-0.42C50.86,43.49,52.94,47.05,52.94,50.9L52.94,50.9z M50.58,20.29v2.38
		c0,0.66-0.53,1.19-1.19,1.19c-0.66,0-1.19-0.53-1.19-1.19v-2.38c0-0.66,0.53-1.19,1.19-1.19C50.05,19.1,50.58,19.64,50.58,20.29z"
		/>
	<path class="st0" d="M68.98,33.21h-1.63c0.06-0.26,0.09-0.53,0.08-0.8c-0.12-2.21-2.01-3.91-4.23-3.79
		c-2.05,0.11-3.68,1.75-3.79,3.79c0,0.27,0.03,0.54,0.08,0.8h-7.73c-1.14-0.61-2.34-1.1-3.57-1.48v-3.24h3.57
		c1.97,0,3.57-1.6,3.57-3.57v-7.01c0-1.97-1.6-3.57-3.57-3.57H32.89c-1.97,0-3.57,1.6-3.57,3.57v7.04c0,1.97,1.6,3.57,3.57,3.57
		h3.57v3.21c-1.24,0.38-2.43,0.87-3.57,1.48h-0.83v-1c0-0.55-0.44-0.99-0.99-0.99h-2.25c-0.55,0-0.99,0.44-0.99,0.99v1.06h-1.81
		c0.06-0.26,0.09-0.53,0.08-0.8c-0.12-2.21-2.01-3.91-4.23-3.79c-2.05,0.11-3.68,1.75-3.79,3.79c0,0.27,0.03,0.54,0.08,0.8h-2.45
		c-1.97,0-3.57,1.6-3.57,3.57v28.2c0,1.97,1.6,3.57,3.57,3.57h17.18c5.9,3.15,12.98,3.15,18.87,0h17.22c1.97,0,3.57-1.6,3.57-3.57
		v-28.3C72.54,34.79,70.94,33.21,68.98,33.21z M63.42,30.83c0.89-0.01,1.63,0.71,1.63,1.61c0,0,0,0.01,0,0.01
		c0.01,0.28-0.07,0.56-0.21,0.8h-2.82c-0.15-0.24-0.22-0.52-0.21-0.8c-0.02-0.89,0.68-1.63,1.57-1.66L63.42,30.83z M32.89,26.13
		c-0.66,0-1.19-0.53-1.19-1.19v0v-7.03c0-0.66,0.53-1.19,1.19-1.19l0,0h18.87c0.66,0,1.19,0.53,1.19,1.19v7.04
		c0,0.66-0.53,1.19-1.19,1.19L32.89,26.13z M45.87,28.52v2.67c-2.34-0.41-4.74-0.41-7.08,0v-2.69L45.87,28.52z M22.09,30.79
		c0.89,0,1.62,0.73,1.62,1.62c0.01,0.28-0.07,0.56-0.21,0.8h-2.81c-0.15-0.24-0.23-0.52-0.21-0.8C20.48,31.52,21.2,30.8,22.09,30.79
		z M14.52,36.75c0-0.66,0.53-1.19,1.19-1.19h0h13.7c-1.61,1.36-2.99,2.97-4.09,4.77H14.52V36.75z M14.52,42.64h9.53
		c-2.37,5.25-2.37,11.26,0,16.52h-9.53V42.64z M15.71,66.23c-0.66,0-1.19-0.53-1.19-1.19v-3.57h10.83c1.1,1.8,2.48,3.4,4.09,4.77
		H15.71z M42.36,68.61c-9.77,0.02-17.71-7.89-17.73-17.66s7.89-17.71,17.66-17.73C52.06,33.2,60,41.11,60.02,50.88
		c0,0.01,0,0.02,0,0.02c0,9.77-7.92,17.68-17.68,17.68c0,0-0.01,0-0.01,0L42.36,68.61z M70.2,65.04c0,0.66-0.53,1.19-1.19,1.19l0,0
		H55.24c1.61-1.36,2.99-2.97,4.1-4.77h10.82L70.2,65.04z M70.2,59.08h-9.53c2.37-5.25,2.37-11.26,0-16.5h9.53V59.08z M70.2,40.22
		H59.34c-1.11-1.79-2.49-3.4-4.1-4.77h13.74c0.66,0,1.19,0.53,1.19,1.19v0L70.2,40.22z"/>
</g>
<g>
	<g class="st1">
		<path class="st2" d="M46.21,63.34l-3.27,1.24c-1.67,0.63-3.54-0.21-4.17-1.89L23.79,23c-0.63-1.67,0.21-3.54,1.89-4.17l3.27-1.24
			c1.67-0.63,3.54,0.21,4.17,1.89L48.1,59.17C48.73,60.84,47.88,62.71,46.21,63.34z"/>
	</g>
	<g>
		<path class="st2" d="M18.8,65.24l-3.37-0.93c-1.72-0.48-2.73-2.26-2.26-3.98l11.29-40.89c0.48-1.72,2.26-2.73,3.98-2.26l3.37,0.93
			c1.72,0.48,2.73,2.26,2.26,3.98L22.78,62.98C22.3,64.7,20.52,65.72,18.8,65.24z"/>
		<path d="M20.12,66.33c-0.53,0.06-1.06,0.01-1.59-0.13l-3.37-0.93c-1.09-0.3-2-1.01-2.56-1.99c-0.56-0.98-0.7-2.13-0.4-3.22
			L23.5,19.17c0.3-1.09,1.01-2,1.99-2.56c0.99-0.56,2.13-0.7,3.22-0.4l3.37,0.93c1.09,0.3,2,1.01,2.56,1.99s0.7,2.13,0.4,3.22
			L23.74,63.25c-0.3,1.09-1.01,2-1.99,2.56C21.24,66.09,20.69,66.27,20.12,66.33z M19.06,64.28c1.19,0.33,2.42-0.37,2.75-1.56
			l11.29-40.89c0.16-0.58,0.08-1.18-0.21-1.7c-0.3-0.52-0.77-0.89-1.35-1.05l-3.37-0.93c-0.58-0.16-1.18-0.08-1.7,0.21
			c-0.52,0.3-0.89,0.77-1.05,1.35L14.13,60.59c-0.16,0.58-0.08,1.18,0.21,1.7c0.3,0.52,0.77,0.89,1.35,1.05L19.06,64.28z"/>
	</g>
	<g class="st1">
		<path class="st2" d="M72.57,63.53l-2.78,1.05c-1.67,0.63-3.54-0.21-4.17-1.89L50.64,23c-0.63-1.67,0.21-3.54,1.89-4.17l2.78-1.05
			c1.67-0.63,3.54,0.21,4.17,1.89l14.97,39.69C75.09,61.03,74.24,62.9,72.57,63.53z"/>
	</g>
	<g>
		<path class="st2" d="M43.8,65.24l-3.37-0.93c-1.72-0.48-2.73-2.26-2.26-3.98l11.29-40.89c0.48-1.72,2.26-2.73,3.98-2.26l3.37,0.93
			c1.72,0.48,2.73,2.26,2.26,3.98L47.78,62.98C47.3,64.7,45.52,65.72,43.8,65.24z"/>
		<path d="M45.12,66.33c-0.53,0.06-1.06,0.01-1.59-0.13l-3.37-0.93c-1.09-0.3-2-1.01-2.56-1.99c-0.56-0.98-0.7-2.13-0.4-3.22
			L48.5,19.17c0.3-1.09,1.01-2,1.99-2.56c0.99-0.56,2.13-0.7,3.22-0.4l3.37,0.93c1.09,0.3,2,1.01,2.56,1.99s0.7,2.13,0.4,3.22
			L48.74,63.25c-0.3,1.09-1.01,2-1.99,2.56C46.24,66.09,45.69,66.27,45.12,66.33z M44.06,64.28c1.19,0.33,2.42-0.37,2.75-1.56
			l11.29-40.89c0.16-0.58,0.08-1.18-0.21-1.7c-0.3-0.52-0.77-0.89-1.35-1.05l-3.37-0.93c-0.58-0.16-1.18-0.08-1.7,0.21
			c-0.52,0.3-0.89,0.77-1.05,1.35L39.13,60.59c-0.16,0.58-0.08,1.18,0.21,1.7c0.3,0.52,0.77,0.89,1.35,1.05L44.06,64.28z"/>
	</g>
</g>
</svg>
